<?xml version="1.0" standalone="no"?><!DOCTYPE svg PUBLIC "-//W3C//DTD SVG 1.1//EN" "http://www.w3.org/Graphics/SVG/1.1/DTD/svg11.dtd"><svg t="1631512258478" class="icon" viewBox="0 0 1024 1024" version="1.1" xmlns="http://www.w3.org/2000/svg" p-id="17644" xmlns:xlink="http://www.w3.org/1999/xlink" width="128" height="128"><defs><style type="text/css">@font-face { font-family: element-icons; src: url("chrome-extension://moombeodfomdpjnpocobemoiaemednkg/fonts/element-icons.woff") format("woff"), url("chrome-extension://moombeodfomdpjnpocobemoiaemednkg/fonts/element-icons.ttf ") format("truetype"); }
</style></defs><path d="M1023.847864 979.157833a45.56774 45.56774 0 0 1-46.299164 44.836316H46.299164A45.56774 45.56774 0 0 1 0 979.157833c0-24.722144 20.69931-44.836315 46.299164-44.836315h931.249536c25.599854 0.073142 46.299164 20.114171 46.299164 44.836315z m-69.704745-335.284941h-213.50278l-62.024788-139.336346c76.214422-49.444289 126.24385-133.558094 126.24385-228.935835C804.859401 123.391295 677.372129 0 520.042743 0 362.786498 0 235.299227 123.391295 235.299227 275.600711c0 95.816595 50.468283 180.149828 127.048417 229.520974l-61.878504 138.751207H71.67959a75.848709 75.848709 0 0 0-71.533305 69.631602v113.151354c2.559985 37.887783 34.376946 67.949326 73.727579 69.339032h879.903543c36.790647-2.925698 66.120765-30.719824 70.216742-65.901338v-122.879298a76.068137 76.068137 0 0 0-69.85103-63.341352z" p-id="17645" fill="#ffffff"></path></svg>