<?xml version="1.0" standalone="no"?><!DOCTYPE svg PUBLIC "-//W3C//DTD SVG 1.1//EN" "http://www.w3.org/Graphics/SVG/1.1/DTD/svg11.dtd"><svg t="1631512076478" class="icon" viewBox="0 0 1024 1024" version="1.1" xmlns="http://www.w3.org/2000/svg" p-id="14967" xmlns:xlink="http://www.w3.org/1999/xlink" width="128" height="128"><defs><style type="text/css">@font-face { font-family: element-icons; src: url("chrome-extension://moombeodfomdpjnpocobemoiaemednkg/fonts/element-icons.woff") format("woff"), url("chrome-extension://moombeodfomdpjnpocobemoiaemednkg/fonts/element-icons.ttf ") format("truetype"); }
</style></defs><path d="M511.999488 63.791885c-247.537769 0-448.208115 200.668299-448.208115 448.207092 0 247.538793 200.670346 448.208115 448.208115 448.208115s448.208115-200.669322 448.208115-448.208115C960.207603 264.460184 759.537258 63.791885 511.999488 63.791885zM217.028407 490.580155c-21.336958 9.836019-35.080983 26.809599-38.344307 31.364335-3.261277 4.555759-11.307533 17.550725-11.307533 17.550725s-1.031493-21.101597 5.184069-44.667316c6.214539-23.563672 21.150716-43.140543 33.323966-50.39783 0 0 11.401678-10.239202 32.190143-14.545274 12.342096-2.554172 35.953863-4.331655 35.953863-4.331655l0-41.337477 98.28856 69.620637-98.28856 69.621661 0-40.960901C274.029632 482.496036 238.365364 480.744135 217.028407 490.580155zM772.097318 749.233076c0 28.685319-23.184025 51.954279-51.870368 51.954279L322.623373 801.187355c-28.687366 0-51.866275-23.26896-51.866275-51.954279L270.757099 558.689369l51.866275 0 0 190.543707 397.602553 0L720.225927 558.689369l51.870368 0L772.096295 749.233076zM494.636029 579.278289l-84.056418 0 0-30.15581 69.536726 0-59.734476-100.383268 42.213427 0 59.987233 100.383268 58.592466-100.383268 42.197054 0-60.649312 100.383268 69.551052 0 0 30.15581-83.439364 0-7.012717 13.536294 0 26.838252 90.452081 0 0 30.15888-90.452081 0 0 60.606333-40.666188 0 0-60.606333-90.577948 0 0-30.15888 90.577948 0L501.155513 592.814584 494.636029 579.278289zM774.130627 472.02352l-1.346671 0L515.304767 270.665513 359.673198 400.289756l-42.732244-32.151257 198.363813-167.082366 274.40672 219.101113 66.974367 0 0 51.866275L774.130627 472.02352z" p-id="14968" fill="#ffffff"></path></svg>