<?xml version="1.0" standalone="no"?><!DOCTYPE svg PUBLIC "-//W3C//DTD SVG 1.1//EN" "http://www.w3.org/Graphics/SVG/1.1/DTD/svg11.dtd"><svg t="1631511750946" class="icon" viewBox="0 0 1024 1024" version="1.1" xmlns="http://www.w3.org/2000/svg" p-id="10349" xmlns:xlink="http://www.w3.org/1999/xlink" width="128" height="128"><defs><style type="text/css">@font-face { font-family: element-icons; src: url("chrome-extension://moombeodfomdpjnpocobemoiaemednkg/fonts/element-icons.woff") format("woff"), url("chrome-extension://moombeodfomdpjnpocobemoiaemednkg/fonts/element-icons.ttf ") format("truetype"); }
</style></defs><path d="M222.72 196.608h578.048c21.504 0 35.84-14.336 35.84-33.28s-16.896-33.28-35.84-33.28H222.72c-18.944 0-33.28 14.336-33.28 33.28s14.336 33.28 33.28 33.28m635.904 69.12H165.376c-21.504 0-35.84 14.336-35.84 33.28v556.544c0 21.504 14.336 38.4 35.84 38.4h692.736c21.504 0 35.84-16.896 35.84-38.4V299.52c0.512-19.456-13.824-33.792-35.328-33.792m-227.328 349.184c21.504 0 35.84 14.336 35.84 33.28 0 16.896-14.336 33.28-35.84 33.28h-86.016V762.88c0 21.504-14.336 38.4-33.28 38.4s-33.28-16.896-33.28-38.4v-83.456H392.704c-21.504 0-35.84-14.336-35.84-33.28s14.336-33.28 35.84-33.28h86.016v-47.616H392.704c-21.504 0-35.84-14.336-35.84-33.28 0-16.896 14.336-33.28 35.84-33.28H440.32l-16.896-33.28-21.504-40.448c-9.728-16.896-4.608-40.448 11.776-47.616 14.336-7.168 35.84 0 45.568 16.896l16.896 33.28v2.56l16.896 33.28 16.896 35.84 16.896-35.84 16.896-33.28v-2.56l16.896-33.28c9.728-16.896 31.232-26.112 45.568-16.896 14.336 7.168 21.504 31.232 11.776 47.616l-11.776 40.448-16.896 35.84h45.568c21.504 0 35.84 14.336 35.84 33.28s-14.336 33.28-35.84 33.28h-87.04v47.616h83.456" fill="#ffffff" p-id="10350"></path></svg>