<?xml version="1.0" standalone="no"?><!DOCTYPE svg PUBLIC "-//W3C//DTD SVG 1.1//EN" "http://www.w3.org/Graphics/SVG/1.1/DTD/svg11.dtd"><svg t="1631511962116" class="icon" viewBox="0 0 1024 1024" version="1.1" xmlns="http://www.w3.org/2000/svg" p-id="12325" xmlns:xlink="http://www.w3.org/1999/xlink" width="128" height="128"><defs><style type="text/css">@font-face { font-family: element-icons; src: url("chrome-extension://moombeodfomdpjnpocobemoiaemednkg/fonts/element-icons.woff") format("woff"), url("chrome-extension://moombeodfomdpjnpocobemoiaemednkg/fonts/element-icons.ttf ") format("truetype"); }
</style></defs><path d="M811.744 918.92c-3.28-54.576-24.936-97.344-66.216-130.728-34.504-27.912-78.056-45.096-116.464-60.264-46.92-18.528-87.616-34.592-99.888-62.768-1.912-22.744-1.752-40.392-1.568-60.704l0.072-9.44c9.992-9.984 18.528-24.928 24.504-37.216 5.432-11.16 14.296-31.76 18.76-55.168 6.544-3.36 12.552-8.4 17.624-14.88 10.008-12.76 16.504-31.12 19.32-54.576 2.624-21.864-3.736-38.696-12.512-49.776 5.624-19.112 13.584-51.168 16.488-87.448 4.08-50.816-3.296-91.768-21.92-121.744-17.248-27.768-43.368-45.24-77.728-52.048-18.96-23.952-55.256-37-103.688-37l-0.376 0.008c-73.864 1.352-127.928 23.936-160.68 67.088-38.808 51.136-46.024 128.632-21.488 230.472-9.056 11.08-15.728 28.144-13.04 50.448 2.816 23.456 9.32 41.824 19.312 54.576 5.088 6.496 11.12 11.536 17.672 14.904 6.872 34.728 25.824 73.848 44.28 92.28 0.016 3.16 0.04 6.256 0.072 9.296 0.168 20.384 0.336 38.096-1.592 60.92-12.28 28.168-53.136 44.232-100.248 62.768-38.552 15.16-82.256 32.344-116.904 60.256-41.44 33.376-63.176 76.144-66.456 130.728a20.136 20.136 0 0 0 20.088 21.328h762.48a20.12 20.12 0 0 0 20.096-21.312z" fill="#ffffff" p-id="12326"></path><path d="M51.832 899.992c6.128-32.816 22-58.736 48.968-80.464 29.848-24.048 68.752-39.344 106.368-54.144 54.976-21.624 106.896-42.048 124.176-88.496 0.624-1.688 1.024-3.432 1.176-5.216 2.368-26.208 2.2-46.408 2.016-67.784-0.056-5.936-0.096-12.072-0.096-18.488 0-7.384-4.048-14.168-10.52-17.68-7.664-5.416-31.952-44.704-35.984-82.536a20.12 20.12 0 0 0-18.376-17.928c-2.552-0.216-12.864-7.416-16.656-38.896-1.944-16.128 5.92-21.832 5.968-21.864a20.144 20.144 0 0 0 9-22.24c-11.824-45.48-17.056-85.936-15.56-120.24 1.584-36.296 10.744-65.72 27.232-87.44 24.904-32.808 68.36-50.024 129.176-51.176 37.552 0.032 65.304 9.416 74.248 25.128a20.064 20.064 0 0 0 14.712 9.968c26.792 3.72 45.8 15.16 58.08 34.944 30.816 49.592 12.984 141.216-2.416 187.536a20.072 20.072 0 0 0 8.608 23.52c0.08 0.056 7.904 5.736 5.976 21.88-3.784 31.48-14.096 38.68-16.656 38.888a20.136 20.136 0 0 0-18.376 17.92c-4.064 38.032-27.56 77.192-34.984 82.56a20.152 20.152 0 0 0-10.456 17.664c0 6.48-0.056 12.68-0.112 18.68-0.184 21.32-0.376 41.448 1.992 67.592 0.16 1.784 0.552 3.528 1.176 5.216 17.264 46.424 69 66.856 123.76 88.472 37.472 14.792 76.224 30.088 105.944 54.128 26.864 21.736 42.664 47.656 48.776 80.496H51.832z m955.12-74.688a20.12 20.12 0 0 1-14.64 6.32h-123.448a20.12 20.12 0 1 1 0-40.248h100.48c-5.48-25.112-18.232-45.176-39.176-62.12-24.648-19.936-57.04-32.728-88.384-45.08-46.792-18.464-91-35.912-106.04-76.336a19.824 19.824 0 0 1-1.192-5.224c-1.992-22.192-1.84-39.216-1.68-57.24 0.04-5.048 0.088-10.272 0.088-15.72a20.16 20.16 0 0 1 10.224-17.536c6.752-5.448 24.88-37.432 28.08-67.192a20.128 20.128 0 0 1 18.104-17.88c1.832-0.672 8.696-7.408 11.408-30 1.312-10.896-3.272-15.024-3.736-15.424a20.128 20.128 0 0 1-8.464-23.424c12.792-38.504 27.688-114.512 2.376-155.248-9.824-15.808-25.088-24.96-46.656-27.968a20.08 20.08 0 0 1-14.712-9.976c-6.84-12.032-29.728-19.504-59.744-19.536a232.752 232.752 0 0 0-33.664 2.936 20.136 20.136 0 0 1-6.6-39.704 272.776 272.776 0 0 1 39.704-3.464l0.36-0.008c41.192 0 72.32 11.08 89.096 31.44 29.264 6.056 51.584 21.184 66.408 45.048 34.752 55.944 15.416 142.224 5.336 177.176 7.352 9.912 12.472 24.432 10.272 42.968-2.456 20.352-8.16 36.344-16.976 47.56a49.016 49.016 0 0 1-14.552 12.656c-5.704 27.472-20.128 60.216-36.056 76.912-0.008 2.296-0.032 4.552-0.056 6.76-0.152 16.872-0.28 31.536 1.256 50.304 10.176 22.28 45.192 36.096 82.184 50.696 32.56 12.848 69.472 27.408 98.912 51.216 35.504 28.704 54.12 65.448 56.92 112.352a20.04 20.04 0 0 1-5.432 14.984z" fill="#ffffff" p-id="12327"></path></svg>