<?xml version="1.0" standalone="no"?><!DOCTYPE svg PUBLIC "-//W3C//DTD SVG 1.1//EN" "http://www.w3.org/Graphics/SVG/1.1/DTD/svg11.dtd"><svg t="1631511155970" class="icon" viewBox="0 0 1024 1024" version="1.1" xmlns="http://www.w3.org/2000/svg" p-id="4159" xmlns:xlink="http://www.w3.org/1999/xlink" width="128" height="128"><defs><style type="text/css">@font-face { font-family: element-icons; src: url("chrome-extension://moombeodfomdpjnpocobemoiaemednkg/fonts/element-icons.woff") format("woff"), url("chrome-extension://moombeodfomdpjnpocobemoiaemednkg/fonts/element-icons.ttf ") format("truetype"); }
</style></defs><path d="M902.007467 419.109547l-76.220075 0c-7.182677-15.482539-17.368747-47.686315-30.406997-70.630741l53.834752-52.31104c17.000107-17.000448 17.012736-43.737088 0.026965-60.705109l-61.446827-61.077845c-16.966315-16.966997-44.479829-16.782336-61.479936 0.203435l-50.825557 53.908821c-22.911317-13.022549-55.115776-23.133184-70.598315-30.316885l0.000341-76.200619c0-24.027136-25.450155-43.472213-49.430869-43.472213l-86.902101 0c-23.998805 0-49.449301 19.44576-49.449301 43.472213l0.000341 76.219392c-15.483904 7.184043-47.667541 17.370112-70.612651 30.388907l-52.329131-53.829291c-17.000107-17.000107-43.752107-16.999765-60.705451-0.033451l-61.077504 61.466283c-16.953003 16.953003-16.797013 44.465152 0.203093 61.479936l53.923499 50.825557c-13.036885 22.945451-23.128405 55.130112-30.312107 70.612651l-76.205397 0c-24.042496 0-43.486891 25.450155-43.486891 49.435648l0 86.897323c0 23.979349 19.444395 49.44896 43.486891 49.44896l76.219733 0c7.182677 15.482539 17.383424 47.6672 30.391979 70.612651l-53.832363 52.343467c-17.000448 17.000448-17.000448 43.723093-0.029013 60.690773l61.447168 61.091157c16.953003 16.953344 44.479488 16.783701 61.479595-0.216747l50.825899-53.923499c22.945109 13.018795 55.128747 23.128747 70.612309 30.312448l0.000341 76.219733c0 24.026795 25.449813 43.472555 49.435307 43.472555l86.897323 0c23.979691 0 49.44896-19.44576 49.44896-43.491669l0.000341-76.215296c15.482539-7.182336 47.6672-17.387861 70.630741-30.406656l52.325035 53.829291c17.000789 17.000107 43.723093 17.000107 60.690773 0.032427l61.091157-61.447168c16.953344-16.966315 16.783701-44.479488-0.216405-61.479595l-53.923157-50.825899c13.018795-22.944427 23.128064-55.115435 30.311765-70.597973l76.220075 0c24.027136 0 43.472213-25.449813 43.472213-49.435307l0-86.897664c0-23.999147-19.44576-49.44896-43.486549-49.44896zm-390.004053 288.379563c-107.988309 0-195.525291-87.535275-195.525291-195.505493 0.000341-107.983531 87.53664-195.519147 195.525291-195.519147 107.998208 0 195.520171 87.535616 195.520171 195.519147 0.000341 107.974997-87.522304 195.505493-195.520171 195.505493z" p-id="4160" fill="#ffffff"></path></svg>