<?xml version="1.0" standalone="no"?><!DOCTYPE svg PUBLIC "-//W3C//DTD SVG 1.1//EN" "http://www.w3.org/Graphics/SVG/1.1/DTD/svg11.dtd"><svg t="1631512146081" class="icon" viewBox="0 0 1024 1024" version="1.1" xmlns="http://www.w3.org/2000/svg" p-id="15833" xmlns:xlink="http://www.w3.org/1999/xlink" width="128" height="128"><defs><style type="text/css">@font-face { font-family: element-icons; src: url("chrome-extension://moombeodfomdpjnpocobemoiaemednkg/fonts/element-icons.woff") format("woff"), url("chrome-extension://moombeodfomdpjnpocobemoiaemednkg/fonts/element-icons.ttf ") format("truetype"); }
</style></defs><path d="M938.837333 189.824c0-17.152-0.341333-40.32-1.066666-69.546667a21.333333 21.333333 0 0 0-25.301334-20.437333c-34.901333 6.613333-62.165333 10.410667-81.792 11.392-109.056 6.229333-191.146667-18.346667-263.850666-46.08-3.456-1.28-15.36-5.973333-35.754667-14.037333a53.674667 53.674667 0 0 0-42.24 1.194666c-20.394667 9.472-31.786667 14.634667-34.133333 15.530667-77.653333 29.952-181.12 49.92-280.32 42.154667-15.189333-1.194667-35.84-4.437333-61.909334-9.642667a21.333333 21.333333 0 0 0-25.514666 20.906667v304.768c0 37.162667-3.2 74.368 0 110.421333 10.837333 113.194667 88.149333 196.693333 165.205333 258.730667a1061.205333 1061.205333 0 0 0 261.973333 146.432 1258.069333 1258.069333 0 0 0 156.586667-78.336 1242.368 1242.368 0 0 0 123.434667-89.045334c62.72-53.674667 125.952-122.026667 142.72-211.541333 0.981333-6.997333 1.450667-14.08 1.493333-21.12l0.469333-351.744zM389.888 693.589333a205.056 205.056 0 0 0-34.133333-39.765333c165.973333-40.661333 176.896-100.650667 176.896-140.885333v-46.506667h52.736v46.506667c-0.213333 55.125333-20.906667 130.218667-195.498667 180.650666z m329.173333-2.133333a1091.2 1091.2 0 0 0-155.050666-73.898667l35.328-29.994666a1424.341333 1424.341333 0 0 1 155.52 69.76l-35.797334 34.133333z m36.736-338.218667h-182.485333c-1.621333 17.450667-3.712 33.28-6.058667 46.506667h151.338667v189.909333H665.173333v-142.933333h-214.784v140.842667H399.658667V400.426667h118.101333c1.706667-14.08 3.328-29.610667 4.864-46.506667H364.373333v29.994667c0 88.576-8.106667 218.752-61.397333 304.085333a153.173333 153.173333 0 0 0-44.16-25.6c51.157333-81.322667 55.338667-197.12 55.338667-279.381333V231.893333c124.16-3.114667 247.893333-15.872 370.090666-38.101333l40.234667 40.661333c-41.386667 8.618667-89.770667 16.256-141.354667 23.253334-1.621333 16.256-3.242667 33.706667-4.906666 51.626666h177.621333v43.946667z" p-id="15834" fill="#ffffff"></path><path d="M364.330667 308.608h162.730666c0-16.256 2.090667-31.573333 3.242667-46.506667a3387.733333 3387.733333 0 0 1-164.821333 10.24l-1.152 36.266667z" p-id="15835" fill="#ffffff"></path></svg>