<?xml version="1.0" standalone="no"?><!DOCTYPE svg PUBLIC "-//W3C//DTD SVG 1.1//EN" "http://www.w3.org/Graphics/SVG/1.1/DTD/svg11.dtd"><svg t="1631511406425" class="icon" viewBox="0 0 1024 1024" version="1.1" xmlns="http://www.w3.org/2000/svg" p-id="6817" xmlns:xlink="http://www.w3.org/1999/xlink" width="128" height="128"><defs><style type="text/css">@font-face { font-family: element-icons; src: url("chrome-extension://moombeodfomdpjnpocobemoiaemednkg/fonts/element-icons.woff") format("woff"), url("chrome-extension://moombeodfomdpjnpocobemoiaemednkg/fonts/element-icons.ttf ") format("truetype"); }
</style></defs><path d="M532.789 404.29l-94.32-94.24c12.301-23.557 19.397-47.445 19.39-69.399 0-120.817-115.35-237.65-236.158-236.162-0.493 0-14.042 13.953-21.476 21.365 96.792 96.57 88.794 80.986 88.794 140.386 0 47.979-77.293 124.232-124.244 124.232-60.916 0-41.48 10.068-140.324-88.788-7.92 7.514-21.423 20.985-21.426 21.48 1.493 120.811 115.41 236.163 236.165 236.163 21.951 0 45.408-6.984 68.39-18.486l85.393 85.421c6.479-1.086 12.976-1.999 19.849-2.04L532.789 404.29z" p-id="6818" fill="#ffffff"></path><path d="M917.681 609.9l64.161 62.652s92.809-257.056-17.217-367.01c-39.919-39.926-98.651-98.773-144.8-144.855-9.988-10.004-37.967-0.95-45.217-10.534-20.414-26.921-27.699-49.899-29.592-55.706-4.102-21.067-26.779-41.955-45.01-60.016l-6.908-6.957C678.042 12.468 670.1 3.364 661.05 3.364c-7.896 0-16.388 6.19-31.038 21.081l-88.361 87.99c-32.354 32.358-24.477 35.737 3.266 63.364l6.718 6.921c20.476 20.356 43.816 45.941 67.483 45.941h0.947c18.043 3.482 55.888 13.99 72.965 45.925 19.01 41.968-7.92 70.939-18.41 87.357L438.276 598.265c-7.778-2.622-15.336-3.701-22.366-3.701-12.952 0-24.567 4.052-34.42 13.746-1.56 1.584-4.13 4.287-7.497 7.309 0 0-194.658 194.696-245.139 245.416-3.021 3.168-5.56 5.328-7.497 7.212-47.946 47.95 39.838 151.786 103.817 151.786 12.608 0 24.505-4.016 34.366-13.842 1.616-1.37 4.173-4.162 7.553-7.179 50.473-50.885 245.09-245.47 245.09-245.47 3.086-3.118 5.586-5.34 7.546-7.171 15.056-15.064 16.524-35.88 9.948-56.868l264.94-264.67c16.266-13.931 32.926-26.811 42.19-26.811 1.275 0 2.77 0.4 3.924 0.931 95.739 54.995 76.95 210.946 76.95 210.946" p-id="6819" fill="#ffffff"></path></svg>