<?xml version="1.0" standalone="no"?><!DOCTYPE svg PUBLIC "-//W3C//DTD SVG 1.1//EN" "http://www.w3.org/Graphics/SVG/1.1/DTD/svg11.dtd"><svg t="1631511223612" class="icon" viewBox="0 0 1024 1024" version="1.1" xmlns="http://www.w3.org/2000/svg" p-id="5021" xmlns:xlink="http://www.w3.org/1999/xlink" width="128" height="128"><defs><style type="text/css">@font-face { font-family: element-icons; src: url("chrome-extension://moombeodfomdpjnpocobemoiaemednkg/fonts/element-icons.woff") format("woff"), url("chrome-extension://moombeodfomdpjnpocobemoiaemednkg/fonts/element-icons.ttf ") format("truetype"); }
</style></defs><path d="M579.328 103.808l6.592 5.952L796.16 320H896a64 64 0 0 1 64 64v512a64 64 0 0 1-64 64H128a64 64 0 0 1-64-64V384a64 64 0 0 1 64-64h106.624l203.84-203.776c39.36-39.296 100.48-45.952 140.864-12.416zM251.648 480c-39.04 0-69.44 8.512-91.136 25.6C138.88 522.496 128 545.28 128 573.568c0 14.72 2.368 27.136 7.168 37.312 4.8 10.24 11.52 18.944 20.16 26.304 8.576 7.36 18.816 13.632 30.72 18.752 8 3.456 16.512 6.912 25.6 10.24l14.144 5.056 20.864 7.04 6.784 2.496c6.4 2.56 11.52 5.12 15.552 7.744a17.216 17.216 0 0 1 7.936 15.296c0 6.656-3.328 12.48-9.92 17.536-6.592 4.992-18.048 7.488-34.24 7.488-15.936 0-30.528-2.688-43.968-8l-5.568-2.496-6.208-3.072-6.72-3.776-4.992-2.24a26.56 26.56 0 0 0-20.48 1.536l-4.48 2.944-3.904 3.84-3.712 5.376A39.04 39.04 0 0 0 128 742.4c0 9.344 2.752 17.6 8.192 24.768a63.36 63.36 0 0 0 22.848 18.048c9.728 4.864 21.12 8.512 34.24 11.008 13.056 2.56 27.2 3.776 42.432 3.776 43.072 0 75.648-8.768 97.792-26.24 22.208-17.6 33.28-40.512 33.28-68.928 0-26.688-8.32-47.808-25.088-63.36-14.272-13.248-33.92-24.576-58.88-33.792l-12.8-4.48-32.384-10.56a54.912 54.912 0 0 1-13.312-6.72 14.592 14.592 0 0 1-6.464-12.288c0-6.336 3.456-11.584 10.432-15.744 6.976-4.16 17.92-6.272 32.768-6.272 10.88 0 21.184 0.96 30.784 2.944l9.408 2.304 7.04 2.304 7.68 3.072 4.608 1.408a23.488 23.488 0 0 0 17.792-3.52l3.584-3.008 3.008-3.776 2.56-4.864a43.008 43.008 0 0 0 3.392-17.408 36.48 36.48 0 0 0-7.424-22.784 55.04 55.04 0 0 0-20.608-16 117.632 117.632 0 0 0-31.552-9.28 246.4 246.4 0 0 0-39.68-3.008z m358.912 8.512H460.16l-8.192 0.512a42.432 42.432 0 0 0-25.6 12.032 43.072 43.072 0 0 0-11.904 25.792l-0.512 8.256v211.84l0.512 8.256c1.28 10.496 5.312 19.072 11.904 25.792a42.432 42.432 0 0 0 25.6 11.968l8.128 0.512h144.96l6.4-0.512a27.328 27.328 0 0 0 15.232-7.68c5.44-5.568 8.192-14.72 8.192-27.328l-0.32-6.592-0.896-6.336-1.536-6.144-1.728-4.032a20.48 20.48 0 0 0-13.44-9.984l-4.416-0.512H498.368v-52.544h91.328l6.4-0.512a26.688 26.688 0 0 0 14.976-7.488c5.248-5.376 7.936-14.4 7.936-27.072l-0.32-6.528-0.896-6.272-1.536-5.952-1.728-4.032a20.352 20.352 0 0 0-13.312-9.792l-4.352-0.448h-98.56v-46.592h104.768l6.4-0.512a27.648 27.648 0 0 0 15.232-7.488c5.44-5.376 8.192-14.336 8.192-27.072l-0.32-6.528-0.896-6.4-1.536-6.08-1.728-4.096a20.48 20.48 0 0 0-13.44-9.984l-4.416-0.448z m115.648-4.992l-11.136 0.448-11.712 1.28-4.096 1.088a20.352 20.352 0 0 0-12.608 14.016l-0.64 5.056v241.536l0.512 8.256c1.28 10.496 5.248 19.072 11.904 25.792a42.432 42.432 0 0 0 25.6 11.968l8.128 0.512h133.12l6.528-0.512a28.48 28.48 0 0 0 15.744-7.68c5.632-5.568 8.448-14.976 8.448-28.352l-0.32-6.592-1.024-6.4-1.664-6.272-1.792-4.16a21.312 21.312 0 0 0-13.952-10.112l-4.48-0.512h-99.84v-197.76l-0.384-8.192a49.728 49.728 0 0 0-2.624-12.864 27.072 27.072 0 0 0-8.96-12.544 35.584 35.584 0 0 0-14.656-6.272 90.24 90.24 0 0 0-12.8-1.536l-7.296-0.192zM506.112 175.936l-4.288 3.648L361.344 320h308.096L522.56 173.12c-2.304-2.304-9.28-2.176-16.448 2.816z" fill="#ffffff" p-id="5022"></path></svg>