<?xml version="1.0" standalone="no"?><!DOCTYPE svg PUBLIC "-//W3C//DTD SVG 1.1//EN" "http://www.w3.org/Graphics/SVG/1.1/DTD/svg11.dtd"><svg t="1631511520797" class="icon" viewBox="0 0 1024 1024" version="1.1" xmlns="http://www.w3.org/2000/svg" p-id="7690" xmlns:xlink="http://www.w3.org/1999/xlink" width="128" height="128"><defs><style type="text/css">@font-face { font-family: element-icons; src: url("chrome-extension://moombeodfomdpjnpocobemoiaemednkg/fonts/element-icons.woff") format("woff"), url("chrome-extension://moombeodfomdpjnpocobemoiaemednkg/fonts/element-icons.ttf ") format("truetype"); }
</style></defs><path d="M888.234667 683.178667c-25.258667 0-45.482667 10.069333-65.706667 20.224l-105.898667-75.690667V471.210667a42.496 42.496 0 0 0-20.224-35.328L550.144 350.122667v-70.656c55.466667-15.104 90.794667-65.536 90.794667-126.122667C640.938667 82.688 580.352 22.101333 504.661333 22.101333c-70.570667 0-126.122667 60.586667-126.122666 136.277334 0 55.466667 35.328 100.949333 85.76 116.053333v70.656L317.952 430.848c-15.104 5.12-20.138667 20.224-20.138667 35.328v156.416l-100.949333 70.656c-20.138667-10.069333-45.397333-20.138667-70.656-20.138667C55.552 673.109333 0.085333 733.696 0.085333 809.301333c0 70.656 60.586667 126.208 136.277334 126.208 70.570667 0 126.122667-60.586667 126.122666-131.242666 0-20.138667-5.12-35.328-10.069333-50.432l75.690667-55.466667 151.381333 90.794667c15.104 5.034667 30.293333 5.034667 40.362667 0l156.416-90.88 80.725333 55.466666c-5.12 15.189333-10.069333 35.413333-10.069333 55.552 0 70.656 60.586667 126.208 136.192 126.208 70.656 0 126.208-60.586667 126.208-131.242666 15.104-65.621333-45.397333-121.088-121.173334-121.088zM514.816 107.946667c30.208 0 50.432 25.173333 50.432 50.432a50.602667 50.602667 0 0 1-50.432 50.432c-25.258667 0-50.517333-25.173333-50.517333-50.346667 0-30.378667 25.258667-50.517333 50.517333-50.517333z m-373.418667 751.786666c-25.258667 0-50.517333-25.173333-50.517333-50.346666a50.602667 50.602667 0 0 1 100.949333 0c0 30.208-25.258667 55.466667-50.432 50.346666zM640.938667 637.866667l-126.122667 70.656-126.208-70.656V496.469333l126.208-70.656 126.122667 70.656v141.312z m247.296 222.037333c-25.258667 0-50.517333-25.258667-50.517334-50.517333a50.602667 50.602667 0 0 1 100.949334 0c0 30.293333-25.258667 55.466667-50.432 50.517333z" fill="#ffffff" p-id="7691"></path></svg>