<?xml version="1.0" standalone="no"?><!DOCTYPE svg PUBLIC "-//W3C//DTD SVG 1.1//EN" "http://www.w3.org/Graphics/SVG/1.1/DTD/svg11.dtd"><svg t="1631512200643" class="icon" viewBox="0 0 1024 1024" version="1.1" xmlns="http://www.w3.org/2000/svg" p-id="16729" xmlns:xlink="http://www.w3.org/1999/xlink" width="128" height="128"><defs><style type="text/css">@font-face { font-family: element-icons; src: url("chrome-extension://moombeodfomdpjnpocobemoiaemednkg/fonts/element-icons.woff") format("woff"), url("chrome-extension://moombeodfomdpjnpocobemoiaemednkg/fonts/element-icons.ttf ") format("truetype"); }
</style></defs><path d="M513.328633 0.00512a39.423803 39.423803 0 0 1 22.732687 7.93596l480.253598 344.676677c14.796726 10.905545 6.860766 35.737421-11.87834 35.737421h-96.869916v615.779321a19.865501 19.865501 0 0 1-19.763101 19.865501H136.856916a19.865501 19.865501 0 0 1-19.763101-19.865501V388.355178H20.275099c-19.763101 0-27.647862-24.831876-11.878341-35.737421L490.595947 6.968285A38.297409 38.297409 0 0 1 513.328633 0.00512z m157.132015 785.608872H354.251029v79.462003h316.209619v-79.462003z m0-158.872806H354.251029v79.410803h316.209619v-79.410803z m0-158.924005H354.251029v79.462003h316.209619V467.817181z" p-id="16730" fill="#ffffff"></path></svg>